<?xml version="1.0" standalone="no"?>
<!DOCTYPE svg PUBLIC "-//W3C//DTD SVG 20010904//EN"
 "http://www.w3.org/TR/2001/REC-SVG-20010904/DTD/svg10.dtd">
<svg version="1.0" xmlns="http://www.w3.org/2000/svg"
 width="512.000000pt" height="512.000000pt" viewBox="0 0 512.000000 512.000000"
 preserveAspectRatio="xMidYMid meet">
<metadata>
Created by potrace 1.14, written by Peter Selinger 2001-2017
</metadata>
<g transform="translate(0.000000,512.000000) scale(0.100000,-0.100000)"
fill="#000000" stroke="none">
<path d="M2645 3643 c-162 -6 -333 -40 -470 -92 -173 -67 -384 -214 -482 -336
-64 -80 -179 -231 -197 -260 -11 -16 -39 -50 -63 -75 -23 -25 -43 -51 -43 -58
0 -7 16 -35 35 -63 40 -59 40 -56 19 -174 -12 -68 -15 -122 -10 -220 10 -204
10 -207 66 -243 l47 -31 6 -88 c5 -90 34 -233 46 -233 4 0 5 73 3 162 l-5 163
26 -31 c15 -17 38 -64 53 -105 15 -41 35 -90 45 -110 21 -43 80 -96 114 -105
14 -3 25 -10 25 -14 0 -4 10 -8 23 -9 50 -2 77 -6 77 -11 0 -9 275 7 318 19
54 15 111 49 137 80 24 30 46 71 38 71 -3 0 -1 6 5 13 5 6 16 40 22 75 13 62
23 81 35 63 3 -6 12 -8 20 -4 26 9 65 -6 65 -26 0 -11 11 -32 24 -48 13 -15
27 -43 30 -60 4 -18 12 -35 17 -38 5 -4 9 -15 9 -25 0 -12 19 -32 48 -51 26
-18 56 -40 67 -50 32 -29 194 -109 220 -109 13 0 26 -4 29 -9 3 -5 22 -12 42
-16 20 -3 51 -13 69 -22 31 -15 33 -19 28 -52 -3 -20 -11 -43 -18 -51 -7 -8
-27 -46 -46 -84 -19 -37 -44 -75 -56 -83 -13 -9 -23 -25 -23 -37 0 -11 -12
-32 -26 -45 -14 -13 -23 -30 -20 -38 10 -24 -12 -13 -38 20 -14 17 -34 41 -44
52 -11 11 -32 41 -48 67 -22 35 -43 54 -86 75 -31 15 -57 33 -57 39 -1 11 64
24 120 24 42 0 48 37 15 94 -14 24 -33 46 -41 50 -10 4 -14 2 -9 -5 4 -8 0 -7
-15 0 -17 10 -21 9 -21 -4 0 -9 -9 -15 -21 -15 -34 0 -99 -22 -93 -31 3 -5 -6
-9 -19 -9 -14 0 -42 -7 -63 -16 -26 -11 -51 -14 -83 -9 -82 12 -140 10 -153
-3 -20 -21 12 -38 83 -46 80 -8 129 -37 129 -77 0 -29 15 -40 23 -16 2 6 4 -1
4 -16 1 -34 1 -35 43 -42 80 -12 101 -18 106 -27 4 -6 -4 -8 -22 -4 -80 16
-104 17 -122 7 -13 -7 -23 -8 -27 -1 -3 5 -50 8 -110 7 -100 -3 -106 -4 -136
-32 -17 -17 -35 -39 -41 -50 -10 -19 -10 -19 13 1 54 48 107 55 227 30 37 -8
106 -17 153 -20 83 -6 156 -25 143 -39 -8 -8 38 -20 61 -15 13 2 18 -4 20 -24
3 -18 -1 -25 -9 -22 -7 3 -18 -7 -25 -22 l-12 -27 -24 23 c-14 13 -25 32 -25
41 0 10 -8 22 -17 28 -23 12 -307 43 -327 35 -8 -3 -18 -14 -21 -25 -4 -11
-11 -17 -16 -14 -5 4 -9 -3 -9 -14 0 -10 6 -22 13 -25 10 -5 10 -7 0 -12 -14
-6 -18 -34 -5 -34 5 0 14 10 20 23 10 20 11 18 11 -20 1 -23 6 -45 11 -48 12
-8 13 -75 1 -75 -5 0 -12 -8 -15 -17 -11 -30 -36 -69 -36 -55 0 6 -9 12 -20
12 -11 0 -20 7 -20 15 0 9 -6 12 -15 9 -9 -4 -18 1 -21 10 -6 15 -8 15 -23 2
-9 -8 -40 -16 -69 -17 -41 -2 -55 1 -66 16 -12 16 -16 17 -30 6 -14 -11 -16
-11 -16 3 0 9 -4 16 -10 16 -5 0 -10 7 -10 15 0 18 -16 20 -24 3 -3 -9 -8 -8
-16 5 -13 21 -40 23 -40 2 0 -8 6 -26 12 -41 10 -22 10 -28 0 -32 -15 -5 38
-57 106 -104 23 -16 40 -33 37 -39 -4 -5 1 -9 9 -9 9 0 16 -4 16 -10 0 -5 6
-10 13 -10 8 0 24 -11 37 -25 13 -14 32 -25 42 -25 12 0 16 -4 12 -11 -5 -8 1
-10 19 -7 15 3 24 1 21 -3 -3 -5 7 -14 22 -19 45 -18 115 -73 109 -87 -2 -8
-1 -12 4 -8 5 3 18 -6 29 -19 10 -14 50 -41 88 -62 53 -29 80 -38 119 -38 28
0 40 -2 27 -4 -12 -2 -20 -8 -16 -13 3 -6 -4 -13 -16 -16 -15 -4 -18 -8 -10
-13 7 -4 9 -13 6 -19 -4 -6 -12 -8 -18 -5 -7 4 -8 2 -4 -5 4 -6 16 -9 27 -6
10 4 19 2 19 -3 0 -5 12 -7 28 -4 15 3 23 1 19 -4 -5 -5 -12 -9 -15 -9 -4 -1
-16 -5 -27 -11 -72 -38 -250 -43 -346 -9 -62 22 -176 96 -229 149 -43 43 -47
44 -58 25 -10 -16 -10 -19 3 -19 9 0 18 -7 21 -15 4 -8 10 -13 14 -10 8 5 60
-39 60 -51 0 -11 31 -32 93 -64 32 -16 65 -36 73 -45 9 -8 29 -16 45 -17 16
-1 44 -3 62 -5 17 -2 46 -3 64 -3 17 0 34 -4 38 -10 3 -5 16 -10 28 -10 26 1
139 39 183 62 28 16 40 16 140 2 114 -15 327 -20 357 -9 10 4 17 2 17 -4 0 -6
9 -11 20 -11 15 0 20 -7 20 -27 0 -14 3 -24 6 -20 3 3 12 1 19 -6 16 -15 -8
-42 -30 -33 -8 3 -15 1 -15 -4 0 -6 -6 -10 -14 -10 -8 0 -18 -9 -21 -20 -8
-25 -16 -25 -47 0 -22 17 -39 19 -121 17 -85 -2 -98 -5 -115 -25 -11 -13 -24
-21 -29 -20 -5 2 -21 -9 -36 -25 l-28 -27 240 0 241 0 7 28 c3 15 17 67 29
117 17 70 23 82 23 53 1 -21 5 -38 10 -38 10 0 2 -50 -10 -65 -4 -6 -4 -17 0
-24 5 -7 6 -22 4 -32 -5 -18 2 -19 136 -19 l142 0 -48 55 c-45 52 -146 121
-233 159 -19 8 -98 34 -175 57 -147 45 -265 105 -265 137 0 20 -49 83 -50 65
0 -23 -15 -14 -26 15 -8 20 -7 45 3 92 7 36 12 72 10 80 -3 16 22 42 66 68 15
9 27 22 27 28 0 14 28 27 40 19 5 -3 12 0 16 6 5 8 3 9 -6 4 -8 -5 -11 -3 -8
6 3 8 11 13 17 11 6 -1 11 5 11 13 0 7 6 18 14 22 7 4 23 24 35 43 11 19 21
31 21 25 0 -10 6 -1 56 94 15 29 34 55 41 58 8 3 11 14 7 29 -4 13 -2 30 4 37
6 6 10 14 11 17 0 3 3 14 6 25 15 46 25 65 35 65 5 0 10 8 10 18 0 9 11 41 25
71 14 30 23 56 21 59 -3 2 1 10 8 18 17 16 29 121 31 279 2 66 4 122 5 125 1
3 2 9 1 13 -4 23 33 126 55 152 l25 30 -3 -163 c-2 -89 0 -162 4 -162 3 0 13
31 22 69 15 65 34 124 35 109 1 -4 -11 -52 -25 -105 -22 -82 -36 -165 -48
-278 -3 -31 -18 -69 -31 -80 -7 -5 -19 -29 -28 -52 -16 -42 -16 -43 3 -43 11
0 19 3 18 8 -1 4 21 54 48 112 56 116 103 250 133 380 25 107 28 140 14 165
-6 11 -9 37 -7 58 3 20 1 37 -4 37 -5 0 2 39 15 88 13 48 23 110 22 137 -1 28
7 88 16 135 35 169 -1 407 -75 499 -19 24 -48 50 -64 58 -16 8 -39 24 -50 35
-43 41 -158 117 -187 123 -16 4 -36 16 -43 28 -87 145 -153 241 -175 255 -14
9 -31 21 -37 27 -6 5 -22 17 -34 25 -12 8 -32 22 -44 31 -11 9 -64 24 -116 34
-149 28 -143 28 -138 -4 3 -23 1 -27 -15 -23 -13 3 -15 8 -8 15 12 12 15 38 4
35 -5 -1 -39 -3 -78 -5z m135 -23 c0 -5 -7 -10 -16 -10 -8 0 -12 5 -9 10 3 6
10 10 16 10 5 0 9 -4 9 -10z m-111 -22 c4 7 12 8 21 2 12 -8 12 -10 -4 -10
-15 0 -16 -3 -6 -15 16 -19 11 -19 -35 1 -29 12 -35 18 -25 24 9 5 20 4 28 -2
10 -9 15 -9 21 0z m181 8 c0 -3 -4 -8 -10 -11 -5 -3 -10 -1 -10 4 0 6 5 11 10
11 6 0 10 -2 10 -4z m-253 -30 c11 3 24 0 28 -6 5 -9 1 -10 -15 -5 -16 5 -20
4 -15 -5 5 -9 1 -10 -15 -5 -17 5 -21 4 -15 -6 6 -9 3 -11 -8 -6 -9 3 -33 0
-54 -8 -26 -9 -31 -14 -18 -15 11 -1 15 -4 9 -6 -6 -3 -22 0 -35 5 -18 7 -20
10 -6 10 11 1 15 6 11 12 -4 8 1 9 16 4 16 -5 20 -4 15 5 -5 9 -1 10 15 5 16
-5 20 -4 15 5 -5 9 -2 10 14 5 17 -5 20 -3 14 12 -6 15 -4 16 8 6 8 -7 24 -10
36 -7z m38 -36 c-3 -5 -11 -10 -16 -10 -6 0 -7 5 -4 10 3 6 11 10 16 10 6 0 7
-4 4 -10z m-38 -13 c-2 -6 -25 -19 -53 -28 -27 -10 -44 -18 -38 -18 6 -1 31 6
54 14 24 8 45 14 46 12 2 -2 -46 -23 -107 -46 -112 -44 -166 -52 -65 -10 31
12 54 24 52 26 -2 2 -21 -3 -41 -12 -51 -21 -56 -11 -8 14 41 22 33 28 -14 10
-22 -8 -25 -8 -16 2 7 7 32 13 57 14 42 1 78 14 45 16 -27 1 23 15 58 16 20 1
33 -3 30 -10z m-47 -66 c-8 -5 -26 -11 -40 -15 -21 -5 -20 -3 5 9 32 15 60 20
35 6z m125 -49 c-3 -3 -11 0 -18 7 -9 10 -8 11 6 5 10 -3 15 -9 12 -12z m-38
-8 c-3 -3 -12 -4 -19 -1 -8 3 -5 6 6 6 11 1 17 -2 13 -5z m-33 -13 c3 -4 -6
-6 -19 -3 -14 2 -25 6 -25 8 0 8 39 4 44 -5z m-49 -11 c8 -13 -5 -13 -25 0
-13 8 -13 10 2 10 9 0 20 -4 23 -10z m-28 -16 c-3 -3 -12 -4 -19 -1 -8 3 -5 6
6 6 11 1 17 -2 13 -5z m40 -27 c-15 -5 -27 -12 -27 -17 0 -4 -8 -6 -19 -3 -10
3 -22 -1 -26 -8 -6 -8 -4 -10 5 -4 8 5 11 4 7 -3 -4 -5 -16 -8 -26 -5 -13 3
-23 -2 -31 -17 -11 -20 -10 -21 10 -15 16 5 21 3 18 -6 -3 -8 -11 -15 -19 -15
-8 -1 -20 -2 -27 -3 -7 0 -11 -5 -8 -9 7 -11 -92 -58 -112 -54 -8 2 -11 -1 -8
-7 4 -6 -6 -17 -22 -25 -24 -12 -29 -13 -29 -1 0 8 4 12 9 9 4 -3 16 0 25 5
13 8 14 10 4 11 -11 0 -9 4 5 15 11 9 14 14 6 15 -9 0 -8 7 5 25 10 13 23 24
28 23 28 -2 37 3 31 17 -8 23 128 86 168 78 19 -4 27 -2 22 5 -4 6 2 8 16 4
22 -5 22 -6 -5 -15z m-502 -347 c-3 -5 -12 -10 -18 -10 -7 0 -6 4 3 10 19 12
23 12 15 0z m1087 -80 c35 -6 77 -21 94 -32 34 -24 88 -104 79 -119 -4 -5 -2
-9 4 -9 15 0 52 -109 46 -134 -5 -15 -4 -17 3 -7 7 10 12 5 17 -20 4 -19 16
-52 25 -74 16 -36 36 -100 76 -249 8 -27 11 -52 9 -56 -6 -10 -70 4 -70 15 -1
6 -7 21 -14 34 -9 16 -14 62 -15 128 0 56 -4 103 -8 103 -5 0 -8 9 -8 20 0 12
-10 25 -25 32 -14 6 -25 18 -26 27 -2 38 -18 -48 -20 -105 -1 -35 -6 -64 -12
-64 -5 0 -6 7 -3 15 3 10 1 15 -7 13 -7 -2 -31 14 -52 36 -22 21 -62 49 -90
63 -47 24 -54 25 -164 19 -186 -11 -241 -31 -241 -89 0 -33 -11 -33 120 3 45
12 111 22 165 23 81 2 96 -1 145 -26 91 -45 112 -68 117 -123 5 -48 4 -49 -28
-63 -24 -9 -80 -13 -194 -12 -155 2 -281 -12 -347 -38 -15 -5 -44 -26 -65 -45
-27 -23 -52 -36 -83 -41 -55 -8 -90 5 -130 45 -17 17 -45 37 -63 45 -91 38
-423 43 -567 9 -36 -8 -95 -18 -132 -21 -64 -5 -68 -4 -68 16 0 12 4 29 9 39
17 29 51 141 51 165 0 29 63 211 85 243 32 49 224 162 344 203 71 25 235 27
372 5 100 -16 110 -15 279 5 96 12 184 23 195 24 65 8 142 7 197 -3z m-874
-726 c63 -12 132 -37 132 -48 0 -2 -19 -2 -42 -1 -24 2 -54 1 -67 -2 -23 -6
-23 -7 -6 -19 17 -13 16 -14 -12 -14 -17 0 -47 -7 -66 -15 -20 -8 -58 -15 -85
-15 -69 0 -160 -18 -205 -42 -22 -11 -36 -15 -33 -9 4 5 2 12 -4 16 -6 4 -10
-5 -10 -19 0 -33 15 -33 78 0 27 14 63 27 79 30 27 4 32 1 37 -22 4 -15 17
-41 28 -57 19 -26 24 -28 62 -21 22 3 65 15 94 26 42 16 56 26 64 50 10 28 11
29 32 11 11 -10 8 -3 -9 15 l-29 32 44 -4 c25 -3 39 -2 33 0 -15 6 -18 44 -4
44 5 0 13 -9 16 -20 4 -11 11 -18 16 -15 12 8 11 -97 0 -148 -30 -129 -176
-190 -398 -167 -100 11 -146 26 -159 53 -5 11 -20 27 -34 36 -22 15 -24 15
-17 -2 12 -32 -12 -8 -33 33 -23 44 -39 127 -23 117 6 -4 13 -25 17 -48 4 -23
9 -39 12 -36 8 7 -18 127 -27 122 -13 -8 -16 42 -5 76 13 40 42 56 123 68 88
14 319 11 401 -5z m961 -1 c3 -6 26 -21 51 -33 25 -13 40 -25 33 -27 -7 -2 -9
-11 -6 -19 4 -12 0 -14 -23 -7 -46 12 -164 10 -172 -4 -9 -14 -81 -18 -177 -8
-75 7 -96 2 -154 -40 -41 -30 -37 -31 24 -5 26 11 59 20 75 20 24 0 28 -5 34
-38 9 -61 34 -76 127 -79 43 -1 78 1 77 5 -1 4 8 26 19 50 17 35 21 40 26 23
3 -11 -3 -28 -14 -40 -20 -21 -25 -41 -10 -41 4 0 25 11 46 25 51 35 114 43
138 17 15 -16 16 -24 6 -48 -6 -16 -12 -36 -13 -44 -8 -76 -128 -122 -322
-121 -107 0 -171 16 -186 45 -13 25 -59 76 -69 76 -4 0 -5 -9 -2 -20 8 -29 -4
-24 -21 9 -14 27 -14 29 5 34 18 5 19 10 13 44 -4 21 -18 47 -31 58 -25 23
-30 63 -11 98 24 46 61 64 150 73 35 3 65 9 68 11 9 10 312 -5 319 -14z
m-1084 -148 c0 -14 -8 -21 -27 -23 -22 -3 -28 1 -28 16 0 25 10 33 35 30 12
-2 20 -10 20 -23z m852 9 c7 -20 -22 -45 -43 -37 -14 5 -19 35 -7 46 12 13 44
7 50 -9z m588 -44 c-3 -5 -11 -10 -16 -10 -6 0 -7 5 -4 10 3 6 11 10 16 10 6
0 7 -4 4 -10z m-334 -328 c-27 -22 -271 -2 -271 22 0 8 -2 8 -8 -1 -5 -8 -12
-8 -26 3 -18 12 -7 14 95 15 63 0 137 6 164 13 49 11 50 11 56 -14 4 -16 0
-30 -10 -38z m-686 -262 c3 -5 1 -10 -4 -10 -6 0 -11 5 -11 10 0 6 2 10 4 10
3 0 8 -4 11 -10z m815 -1214 c0 -3 -4 -8 -10 -11 -5 -3 -10 -1 -10 4 0 6 5 11
10 11 6 0 10 -2 10 -4z"/>
<path d="M2367 3235 c-26 -12 -51 -26 -55 -30 -7 -8 3 -5 45 12 11 4 14 3 9
-5 -5 -9 -1 -9 19 0 16 7 22 14 15 16 -8 3 -4 10 11 18 39 22 8 14 -44 -11z"/>
<path d="M3401 2514 c0 -11 3 -14 6 -6 3 7 2 16 -1 19 -3 4 -6 -2 -5 -13z"/>
<path d="M2158 2444 c-167 -22 -188 -31 -295 -122 -79 -65 -70 -85 14 -33 97
59 206 82 409 85 85 1 93 7 80 62 -6 22 -11 24 -59 23 -28 -1 -96 -7 -149 -15z"/>
<path d="M2700 2040 c0 -6 7 -10 15 -10 8 0 15 2 15 4 0 2 -7 6 -15 10 -8 3
-15 1 -15 -4z"/>
<path d="M1470 2020 c0 -5 7 -10 15 -10 8 0 15 -5 15 -12 0 -6 3 -8 6 -5 8 8
-14 37 -27 37 -5 0 -9 -4 -9 -10z"/>
<path d="M2710 1716 c0 -2 8 -10 18 -17 15 -13 16 -12 3 4 -13 16 -21 21 -21
13z"/>
<path d="M2276 1295 c-26 -24 -35 -55 -16 -55 6 0 10 9 10 20 0 11 4 20 10 20
5 0 14 9 20 20 14 26 9 25 -24 -5z"/>
<path d="M3323 1262 c-16 -10 -25 -49 -14 -57 6 -3 8 0 5 8 -3 9 4 21 16 30
21 15 15 32 -7 19z"/>
<path d="M3306 1175 c-9 -26 -7 -32 5 -12 6 10 9 21 6 23 -2 3 -7 -2 -11 -11z"/>
<path d="M3256 1114 c-9 -8 -16 -20 -16 -26 0 -6 1 -9 3 -7 1 2 11 14 21 27
22 25 16 30 -8 6z"/>
<path d="M2375 1030 c3 -5 8 -10 11 -10 2 0 4 5 4 10 0 6 -5 10 -11 10 -5 0
-7 -4 -4 -10z"/>
<path d="M2136 556 c-19 -30 -22 -48 -3 -22 13 17 15 17 48 2 28 -14 31 -14
14 -1 -11 8 -25 22 -31 30 -10 13 -14 12 -28 -9z"/>
<path d="M2250 489 c39 -34 110 -82 115 -77 2 2 -31 27 -73 56 -44 30 -62 39
-42 21z"/>
<path d="M2005 419 c-4 -6 -5 -12 -2 -15 2 -3 7 2 10 11 7 17 1 20 -8 4z"/>
<path d="M2628 373 c7 -3 16 -2 19 1 4 3 -2 6 -13 5 -11 0 -14 -3 -6 -6z"/>
<path d="M1808 353 c7 -3 16 -2 19 1 4 3 -2 6 -13 5 -11 0 -14 -3 -6 -6z"/>
<path d="M1708 323 c7 -3 16 -2 19 1 4 3 -2 6 -13 5 -11 0 -14 -3 -6 -6z"/>
<path d="M1667 314 c-3 -4 -3 -14 2 -23 5 -9 11 -34 15 -56 12 -67 38 -155 47
-155 4 0 -1 29 -11 65 -10 36 -22 90 -25 120 -7 52 -13 63 -28 49z"/>
<path d="M3431 134 c0 -11 3 -14 6 -6 3 7 2 16 -1 19 -3 4 -6 -2 -5 -13z"/>
</g>
</svg>
